P3
24 24
255
0 97 0	0 35 0	0 100 0	0 191 0	0 47 0	0 16 0	0 77 0	0 204 0	0 48 83	0 100 14	0 124 36	0 182 17	0 172 133	0 49 229	0 200 173	0 237 221	0 0 204	0 0 51	0 0 13	0 0 126	0 0 4	0 0 73	0 0 15	0 0 236	0 161 0	0 75 0	0 143 0	0 166 0	0 61 0	0 137 0	0 48 0	0 234 0	0 63 67	0 230 116	0 148 2	0 121 45	0 83 189	0 86 240	0 250 2	0 183 213	0 0 53	0 0 134	0 0 116	0 0 253	0 0 60	0 0 154	0 0 66	0 0 197	0 126 0	0 67 0	0 170 0	0 92 0	0 15 0	0 157 0	0 126 0	0 194 0	0 13 193	0 48 128	0 162 133	0 176 104	0 209 98	0 138 22	0 34 184	0 17 136	0 0 179	0 0 79	0 0 59	0 0 67	0 0 29	0 0 42	0 0 9	0 0 201	0 98 0	0 222 0	0 167 0	0 46 0	0 158 0	0 226 0	0 142 0	0 124 0	0 82 200	0 15 87	0 28 210	0 152 98	0 145 160	0 101 115	0 66 58	0 238 21	0 0 231	0 0 118	0 0 205	0 0 218	0 0 192	0 0 187	0 0 182	0 0 25	0 120 0	0 112 0	0 180 0	0 104 0	0 20 0	0 61 0	0 117 0	0 7 0	0 29 129	0 61 210	0 253 54	0 15 150	0 45 128	0 103 40	0 165 211	0 66 78	0 0 79	0 0 149	0 0 16	0 0 221	0 0 187	0 0 22	0 0 92	0 0 237	0 141 0	0 10 0	0 248 0	0 131 0	0 177 0	0 242 0	0 97 0	0 84 0	0 177 111	0 108 199	0 155 89	0 32 246	0 89 28	0 163 87	0 222 64	0 218 132	0 0 195	0 0 230	0 0 160	0 0 38	0 0 134	0 0 245	0 0 231	0 0 250	0 245 0	0 126 0	0 200 0	0 23 0	0 226 0	0 205 0	0 189 0	0 239 0	0 226 48	0 164 206	0 194 199	0 145 148	0 225 238	0 206 7	0 52 18	0 149 21	0 0 194	0 0 144	0 0 164	0 0 39	0 0 132	0 0 39	0 0 29	0 0 59	0 78 0	0 234 0	0 59 0	0 203 0	0 57 0	0 254 0	0 43 0	0 140 0	0 207 8	0 94 155	0 59 86	0 223 215	0 244 198	0 227 99	0 203 56	0 128 36	0 0 7	0 0 101	0 0 125	0 0 95	0 0 72	0 0 198	0 0 244	0 0 214	85 195 0	122 79 0	66 14 0	197 100 0	238 87 0	192 45 0	179 167 0	29 46 0	71 110 211	69 109 200	63 84 167	218 220 130	238 144 162	183 119 18	234 72 98	238 35 245	96 0 216	132 0 155	143 0 86	211 0 112	177 0 141	176 0 172	165 0 219	202 0 86	141 120 0	189 96 0	198 203 0	93 132 0	235 93 0	247 16 0	51 177 0	208 173 0	2 60 248	246 183 54	164 247 233	93 222 126	245 165 213	28 220 115	105 222 161	22 219 126	163 0 50	87 0 152	41 0 9	155 0 38	164 0 124	122 0 2	105 0 160	116 0 245	38 221 0	56 111 0	185 245 0	193 37 0	212 93 0	83 20 0	57 25 0	237 97 0	143 17 131	65 1 3	81 195 241	238 200 143	221 232 135	16 82 184	98 51 169	232 157 174	4 0 251	170 0 53	175 0 111	2 0 201	214 0 242	124 0 137	111 0 155	185 0 195	75 25 0	11 74 0	178 23 0	247 164 0	237 15 0	4 191 0	167 16 0	214 196 0	19 140 12	25 84 130	34 19 239	232 1 69	231 237 163	219 61 99	222 27 102	253 240 107	124 0 127	99 0 106	191 0 70	240 0 252	36 0 164	165 0 63	84 0 108	18 0 180	82 87 0	138 213 0	102 230 0	144 211 0	27 48 0	250 73 0	33 32 0	120 69 0	98 92 198	111 174 214	196 223 89	9 78 131	224 252 48	208 98 61	219 25 131	84 249 137	97 0 156	25 0 164	82 0 217	170 0 224	152 0 100	50 0 21	30 0 25	214 0 156	190 102 0	92 31 0	125 120 0	214 188 0	216 230 0	134 120 0	219 84 0	131 110 0	60 80 221	251 179 87	146 73 94	128 150 206	125 92 185	42 50 16	132 154 216	6 248 127	195 0 190	83 0 69	85 0 57	251 0 105	70 0 198	237 0 198	86 0 57	104 0 203	190 253 0	190 180 0	113 231 0	161 131 0	155 204 0	136 161 0	91 99 0	201 70 0	23 249 239	134 110 65	65 104 254	199 155 222	63 13 79	11 222 230	153 159 120	125 238 247	246 0 217	63 0 11	207 0 2	196 0 254	229 0 89	242 0 1	92 0 192	52 0 216	224 178 0	119 26 0	191 66 0	205 136 0	49 107 0	107 183 0	18 247 0	117 123 0	208 4 155	247 43 255	219 132 4	246 170 18	55 212 75	98 167 22	171 23 222	252 113 80	65 0 42	174 0 146	71 0 54	209 0 12	171 0 203	8 0 79	47 0 176	107 0 253	174 83 0	248 5 0	226 93 0	223 126 0	211 4 0	102 18 0	182 68 0	52 94 0	254 0 0	105 0 0	22 0 0	26 0 0	228 0 0	71 0 0	213 0 0	30 0 0	19 0 79	239 0 18	208 0 42	92 0 38	13 0 75	103 0 14	150 0 43	158 0 92	128 61 0	139 14 0	173 39 0	240 30 0	110 13 0	204 37 0	12 49 0	161 120 0	167 0 0	226 0 0	49 0 0	78 0 0	235 0 0	104 0 0	112 0 0	212 0 0	100 0 47	164 0 55	51 0 57	215 0 22	170 0 44	192 0 91	179 0 105	195 0 73	19 106 0	106 90 0	183 68 0	76 5 0	25 12 0	138 29 0	44 7 0	101 12 0	21 0 0	151 0 0	200 0 0	198 0 0	47 0 0	165 0 0	215 0 0	185 0 0	251 0 109	6 0 80	93 0 13	7 0 98	105 0 25	2 0 66	150 0 77	109 0 44	194 23 0	212 88 0	18 94 0	216 87 0	186 75 0	254 108 0	86 115 0	70 37 0	43 0 0	109 0 0	174 0 0	31 0 0	140 0 0	166 0 0	197 0 0	52 0 0	103 0 95	142 0 88	82 0 110	184 0 58	150 0 2	224 0 20	110 0 65	217 0 39	48 62 0	67 123 0	136 28 0	185 32 0	78 61 0	234 26 0	253 41 0	157 37 0	118 0 0	60 0 0	183 0 0	30 0 0	171 0 0	178 0 0	202 0 0	59 0 0	145 0 33	136 0 113	95 0 103	219 0 94	25 0 103	231 0 66	18 0 45	140 0 23	215 65 0	188 40 0	244 75 0	125 41 0	252 62 0	28 16 0	250 103 0	1 104 0	62 0 0	77 0 0	67 0 0	58 0 0	207 0 0	207 0 0	167 0 0	106 0 0	40 0 126	0 0 114	75 0 27	244 0 53	96 0 54	152 0 124	146 0 77	190 0 66	2 76 0	63 36 0	56 17 0	21 119 0	138 0 0	125 81 0	31 22 0	248 58 0	239 0 0	156 0 0	126 0 0	227 0 0	122 0 0	230 0 0	73 0 0	175 0 0	252 0 95	61 0 26	228 0 63	28 0 60	203 0 110	215 0 5	252 0 98	45 0 90	151 66 0	230 2 0	150 16 0	4 63 0	63 117 0	223 104 0	91 52 0	59 51 0	195 0 0	232 0 0	138 0 0	29 0 0	70 0 0	1 0 0	150 0 0	171 0 0	75 0 62	217 0 56	105 0 73	137 0 53	130 0 17	119 0 104	172 0 72	107 0 96	